<?xml version="1.0" encoding="utf-8"?>
<!-- Generator: Adobe Illustrator 23.0.2, SVG Export Plug-In . SVG Version: 6.00 Build 0)  -->
<svg version="1.1" id="Слой_1" xmlns="http://www.w3.org/2000/svg" xmlns:xlink="http://www.w3.org/1999/xlink" x="0px" y="0px"
	 viewBox="0 0 100 100" style="enable-background:new 0 0 100 100;" xml:space="preserve">
<style type="text/css">
	.st0{fill-rule:evenodd;clip-rule:evenodd;fill:#ffffff;}
	.st1{fill:#ffffff;}
</style>
<g>
	<path class="st0" d="M96.3,48.3c-0.8,0.7-2.5,1.4-3.2,1.6c0,0.1-0.1,0.3-0.1,0.4c0,0.2,0,0.3,0.1,0.4c0.7,0.2,2.4,0.9,3.2,1.6
		C96.5,51.2,96.5,49.3,96.3,48.3L96.3,48.3z M3.7,48.3c0.8,0.7,2.5,1.4,3.2,1.6C7,50,7,50.5,6.9,50.7c-0.7,0.2-2.4,0.9-3.2,1.6
		C3.5,51.2,3.5,49.3,3.7,48.3L3.7,48.3z M7.3,50c0.3,0.1,0.8,0.2,1.1,0.3c-0.3,0.1-0.8,0.2-1.1,0.3C7.3,50.3,7.3,50.2,7.3,50L7.3,50
		z M13.9,50.3c0.4-0.1,1.5-0.5,1.8-0.7c-0.1,0.2-0.2,0.4-0.2,0.7c0,0.3,0.1,0.5,0.2,0.7C15.4,50.7,14.3,50.4,13.9,50.3L13.9,50.3
		L13.9,50.3z M19.5,47.4c1.3-0.3,2.8,1.3,5.3,0.9c-1.3-1.2-3.9-0.8-4.7-2.5c-0.6-2.3,1-4,2.3-4.7c0.1,2.3,0.3,3.4,2.1,4.9
		c1.4,1,3.1,1.5,3.2,3.9c0,0.1,0,0.3,0,0.4s0,0.2,0,0.4c-0.1,2.4-1.8,3-3.2,3.9c-1.9,1.5-2,2.5-2.1,4.9c-1.4-0.7-2.9-2.4-2.3-4.7
		c0.8-1.7,3.4-1.3,4.7-2.5c-2.5-0.4-4,1.2-5.3,0.9c-0.9-0.2-3.5-1.9-3.5-2.9C16.1,49.3,18.6,47.6,19.5,47.4L19.5,47.4z M50,26.8
		c-0.9,0-1.9,0.1-2.9,0.3C37,28.6,30,36.1,28,45.3c-0.3,1.2-0.3,1.1,0.3,2.1c0.4,0.7,0.6,1.7,0.6,2.8c0,1.1-0.2,2.2-0.6,2.8
		c-0.6,1-0.5,1-0.3,2.1c2,9.2,9,16.8,19.2,18.3c1,0.1,1.9,0.2,2.9,0.3c0.9,0,1.9-0.1,2.9-0.3C63,72,70,64.4,72,55.2
		c0.3-1.2,0.3-1.1-0.3-2.1c-0.4-0.7-0.6-1.7-0.6-2.8c0-1.1,0.2-2.2,0.6-2.8c0.6-1,0.5-1,0.3-2.1c-2-9.2-9-16.8-19.2-18.3
		C51.9,26.9,50.9,26.8,50,26.8L50,26.8z M50,77.9c8.7-0.3,17.3-4.7,22.3-12.9c1.3-2,3.2-5.9,3.5-8.7c-0.5-0.7-1.9-1.4-2.6-1.7
		c-0.3,0.6-0.8,3.2-1.1,4.1c-1.4,4-3.4,7-6.3,9.8c-4.3,4.1-10.1,6.3-15.8,6.5c-5.8-0.2-11.5-2.4-15.8-6.5c-2.9-2.8-4.9-5.8-6.3-9.8
		c-0.3-0.8-0.8-3.5-1.1-4.1c-0.7,0.3-2.1,1-2.6,1.7c0.3,2.9,2.2,6.7,3.5,8.7C32.7,73.2,41.3,77.6,50,77.9L50,77.9z M50,100.1
		c-0.3,0-0.5,0-0.8,0c-11.1-0.5-21.6-4.7-29.6-11.8c-3-2.7-6-5.6-8.3-9.2c-3.7-6-5.1-7.9-7.3-16c-0.5-1.7-0.9-4.5-1-6
		c0-0.4-0.1-1.6-0.1-1.6c-1-0.4-1-0.3-1.7-1.1c0.8-0.9,1.1-0.9,1.7-1.6c-0.2-1.8-0.2-3.1,0-4.9c-0.6-0.6-0.9-0.7-1.7-1.6
		C2,45.4,2,45.5,3,45.1c0,0,0.1-1.3,0.1-1.6c0.1-1.5,0.5-4.2,1-6c2.1-8.1,3.6-10,7.3-16c2.2-3.7,5.2-6.5,8.3-9.2
		C27.7,5.2,38.2,1,49.2,0.5c0.3,0,0.5,0,0.8,0c0.3,0,0.5,0,0.8,0C61.8,1,72.3,5.2,80.3,12.3c3,2.7,6,5.6,8.3,9.2
		c3.7,6,5.1,7.9,7.3,16c0.5,1.7,0.9,4.5,1,6c0,0.4,0.1,1.6,0.1,1.6c1,0.4,1,0.3,1.7,1.1c-0.8,0.9-1.1,0.9-1.7,1.6
		c0.2,1.8,0.2,3.1,0,4.9c0.6,0.6,0.9,0.7,1.7,1.6C98,55.1,98,55.1,97,55.4c0,0-0.1,1.3-0.1,1.6c-0.1,1.5-0.5,4.2-1,6
		c-2.1,8.1-3.6,10-7.3,16c-2.2,3.7-5.2,6.5-8.3,9.2c-8,7.1-18.5,11.3-29.6,11.8C50.5,100.1,50.3,100.1,50,100.1L50,100.1z M50,99
		c16.4-0.5,31.8-9.7,40-24.1c2.4-4.2,4.9-9.6,5.8-15.5c0.2-1.5,0.3-2.3,0.3-4.1c-0.1,0.1-0.7-0.1-1-0.2c0.9,4.6-0.7,5.4-3,5.8
		c-0.7,1.3,1,2.2,0.7,4.4c-0.2,1.4-1.2,2.3-2.2,2.7c-1.1,0.5-0.8,0.2-1.2,1.3c-0.8,1.8-1.7,3.9-2.8,5.3c0,2-1.3,4.1-3.4,4.7
		c-2.9,4-9.2,9.7-17.3,13.1c-5,2.1-10.4,3.2-15.8,3.4c-5.4-0.1-10.8-1.2-15.8-3.4c-8.1-3.4-14.5-9.1-17.3-13.1
		c-2.1-0.6-3.4-2.8-3.4-4.7c-1.1-1.3-2.1-3.4-2.8-5.3c-0.5-1.1-0.1-0.9-1.2-1.3c-0.9-0.4-2-1.3-2.2-2.7C7,63,8.6,62.2,7.9,60.9
		c-2.3-0.4-3.9-1.2-3-5.8c-0.3,0.1-0.9,0.3-1,0.2c0,1.7,0.1,2.5,0.3,4.1c0.9,6,3.4,11.4,5.8,15.5C18.2,89.3,33.6,98.5,50,99L50,99z
		 M50,94.5c1.3-0.6,0.7-1.6,1-2.1c0.8,0.7,1.7,1.5,3.3,0.5c-0.5-0.2-1.9-0.9-2.4-1.4C51,90.8,50.5,90.1,50,89
		c-0.5,1.1-1,1.8-1.9,2.6c-0.6,0.5-2,1.2-2.4,1.4c1.6,0.9,2.5,0.2,3.3-0.5C49.3,92.9,48.7,94,50,94.5L50,94.5z M50,87.5
		c0.9,1.9,1.5,3.6,5.1,5.1c-0.7,1.6-2.3,1.6-3.6,0.9c-0.4,0.9-0.5,1.1-1.1,1.6c6.3-0.1,11.2-1.5,16.6-3.9c-1.2,0.1-1.6,0.2-2.1,0.1
		c0.8-0.7,2.3-2.6,1.9-4.5c-0.5,1.2-0.9,2.4-2.3,3.9c-0.6,0.6-1.9,1.5-3.1,1.8c-6.9,1.9-11.2-3.3-11.2-8c0-1.8,0.4-3.5,1.6-4.7
		c0.3-0.3,0.4-0.3,0.6-0.5c0.4-0.3,1.2-0.8,1.7-1.1c-1.3,0.3-2.7,0.4-4.1,0.5c-1.4,0-2.8-0.2-4.1-0.5c0.4,0.3,1.2,0.8,1.7,1.1
		c0.2,0.2,0.3,0.3,0.6,0.5c1.2,1.3,1.7,3,1.6,4.7c-0.1,4.8-4.3,9.9-11.2,8c-1.1-0.3-2.5-1.2-3.1-1.8c-1.4-1.4-1.8-2.7-2.3-3.9
		c-0.4,1.9,1.2,3.7,1.9,4.5c-0.5,0.1-0.9,0-2.1-0.1c5.5,2.4,10.3,3.9,16.6,3.9c-0.6-0.5-0.7-0.7-1.1-1.6c-1.3,0.7-2.9,0.7-3.6-0.9
		C48.5,91.1,49.1,89.4,50,87.5L50,87.5z M50,1.5C33.6,2,18.2,11.3,10,25.7c-2.4,4.2-4.9,9.6-5.8,15.5c-0.2,1.5-0.3,2.3-0.3,4.1
		c0.1-0.1,0.7,0.1,1,0.2c-0.9-4.6,0.7-5.4,3-5.8c0.7-1.3-1-2.2-0.7-4.4c0.2-1.4,1.2-2.3,2.2-2.7c1.1-0.5,0.8-0.2,1.2-1.3
		c0.8-1.8,1.7-3.9,2.8-5.3c0-2,1.3-4.1,3.4-4.7c2.9-4,9.2-9.7,17.3-13.1C39.2,6,44.6,4.9,50,4.8C55.4,4.9,60.8,6,65.8,8.2
		c8.1,3.4,14.5,9.1,17.3,13.1c2.1,0.6,3.4,2.8,3.4,4.7c1.1,1.3,2.1,3.4,2.8,5.3c0.5,1.1,0.1,0.9,1.2,1.3c0.9,0.4,2,1.3,2.2,2.7
		c0.3,2.3-1.4,3.1-0.7,4.4c2.3,0.4,3.9,1.2,3,5.8c0.3-0.1,0.9-0.3,1-0.2c0-1.7-0.1-2.5-0.3-4.1c-0.9-6-3.4-11.4-5.8-15.5
		C81.8,11.3,66.4,2,50,1.5L50,1.5z M50,6c-1.3,0.6-0.7,1.6-1,2.1c-0.8-0.7-1.7-1.5-3.3-0.5c0.5,0.2,1.9,0.9,2.4,1.4
		c0.8,0.7,1.3,1.5,1.9,2.6V13c-0.9-1.9-1.5-3.6-5.1-5.1c0.7-1.6,2.3-1.6,3.6-0.9c0.4-0.9,0.5-1.1,1.1-1.6C43.3,5.5,38.5,6.9,33,9.3
		c1.2-0.1,1.6-0.2,2.1-0.1c-0.8,0.7-2.3,2.6-1.9,4.5c0.5-1.2,0.9-2.4,2.3-3.9c0.6-0.6,1.9-1.5,3.1-1.8c6.9-1.9,11.2,3.3,11.2,8
		c0,1.8-0.4,3.5-1.6,4.7c-0.3,0.3-0.4,0.3-0.6,0.5c-0.4,0.3-1.2,0.8-1.7,1.1c1.3-0.3,2.7-0.4,4.1-0.5c1.4,0,2.8,0.2,4.1,0.5
		c-0.4-0.3-1.2-0.8-1.7-1.1c-0.2-0.2-0.3-0.3-0.6-0.5c-1.2-1.3-1.7-3-1.6-4.7c0.1-4.8,4.3-9.9,11.2-8c1.1,0.3,2.5,1.2,3.1,1.8
		c1.4,1.4,1.8,2.7,2.3,3.9c0.4-1.9-1.2-3.7-1.9-4.5c0.5-0.1,0.9,0,2.1,0.1c-5.5-2.4-10.3-3.9-16.6-3.9C51,5.9,51.1,6.1,51.5,7
		c1.3-0.7,2.9-0.7,3.6,0.9c-3.5,1.5-4.1,3.2-5.1,5.1v-1.4c0.5-1.1,1-1.8,1.9-2.6c0.6-0.5,2-1.2,2.4-1.4c-1.6-0.9-2.5-0.2-3.3,0.5
		C50.7,7.6,51.3,6.6,50,6L50,6z M50,22.7c-8.7,0.3-17.3,4.7-22.3,12.9c-1.3,2-3.2,5.9-3.5,8.7c0.5,0.7,1.9,1.4,2.6,1.7
		c0.3-0.6,0.8-3.2,1.1-4.1c1.4-4,3.4-7,6.3-9.8c4.3-4.1,10.1-6.3,15.8-6.5c5.8,0.2,11.5,2.4,15.8,6.5c2.9,2.8,4.9,5.8,6.3,9.8
		c0.3,0.8,0.8,3.5,1.1,4.1c0.7-0.3,2.1-1,2.6-1.7c-0.3-2.9-2.2-6.7-3.5-8.7C67.3,27.4,58.7,22.9,50,22.7L50,22.7z M23.7,56.6
		c0.1,0.9,0.4,1.9,0.6,2.5c-0.3-0.5-0.7-0.8-0.9-1C23.2,57.7,23.5,56.9,23.7,56.6L23.7,56.6z M44.5,82.2c2.6,1.5,1.1,6.7-3.2,6.7
		c-6.1,0-5-9.6-7.9-14.9c-1.5-2.7-3.9-4.4-6.9-5.6c1.4,0.1,1.7,0,2-0.1c0.1-0.1-2.5-3.1-2.2-4.3c3.3,6.2,9.1,10.1,11,11.2
		c0.7,0.4,3.3,1.7,4.6,2.1c-6.3,0.2-5-2.1-7-2.7c-0.1,1.6-0.1,3.1,0.5,4.3c0.7,1.4,1.3,1.5,3.3,1.4c-0.1,0.8-1.7,4.1,1.7,6
		c1.2,0.6,2.5,0.4,3.4-0.2C44.8,85.2,44.9,84.1,44.5,82.2L44.5,82.2z M32.2,90.8c-0.7-0.2-4.6-2.7-5.3-3.1c-0.8-0.5-1.3-0.9-2.1-1.4
		c-1-0.8-1.5-1.2-2.6-2.1c3.5,1.3,6.5-0.1,8-2.8c-0.5,1.5-2,2.9-2.3,3.3c0.7,0.8,1.2,0.8,2,0.9c-0.1,1-0.5,1.9-0.1,2.8
		c0.3,0.9,0.8,0.5,1.1,0.2C31.3,89.7,31.6,90.1,32.2,90.8L32.2,90.8z M25.5,72.6c2,0.9,3.5,3.6,2.5,6.2c-1.1,2.6-5.6,2.9-5.3-0.9
		c0.8,1.1,1.6,1.8,2.9,1.3c0.6-0.3,1.3-1.1,1.5-2c0.8-3.6-4.9-5.7-7.3-1.9c-1.3,2.1-1,4.2-0.1,6.3c-2.5-1.6-2.2-6.2-0.7-7.8
		C20.5,72.3,23.1,71.4,25.5,72.6L25.5,72.6z M14.2,61.6c2.1-1.8,3.3-2.4,3.7-4.5c0.2-0.8,0.3-2-0.1-3.6c0.5,0.5,1,0.7,1.5,0.8
		c-0.2,1.9-0.5,4.2,2.4,5.7c0.2,0.1,1.5,0.7,1.6,0.7c-0.3-0.8-0.1-0.9-0.1-1.8c0.6,1,1.1,1.7,1.5,2.7c0.3,0.8,0.4,1.3,0.7,2.2
		c0.4,2.5,1.1,2.8,2,4c-3.4,0.1-3.9-2-4-5c-0.4,1-0.2,2.2-1,3c-0.7,0.7-1.9,1.1-3,0.8c-1.2-0.3-1.8-1.4-1.6-2.3c0.3-1.3,2-2.2,3,0
		c0.6-1.5-0.6-3.3-2.5-3.7c-3-0.6-4.8,1.8-4.5,4.3c0.1,1.3,0.6,2.7,2.3,3.6c3.1,1.6,8.5-1.5,13.7,2.6c2.4,1.7,3.8,4.2,4.2,6.7
		c1,4,1.1,11.4,7,11.8c3.1,0.2,6-2.2,5.7-5.3c-0.3-3.8-5.5-4.9-5.6-2.2c0.6-0.2,1.2-0.8,2.1-0.3c0.5,0.4,0.8,1.1,0.7,1.9
		c-0.6,3.4-6.7,1-4.4-3.1c1-1.7,2.7-1.4,3.7-1.9c-1.5-1-3.7,0.6-5.5,0.6c-1.3,0-2.3-1-2.2-3.4c0.8,0.5,1.4,1.5,2.7,1.7
		c1.3,0.2,2.6,0,3.8,0.1c8,0.6,8.9,9.9,3.6,13c-6.5,3.7-12.5-0.7-12.3-7.8c0.3-2.2-0.6-8.7-3.3-10.6c1,2.6,2.3,3,2.6,9.4
		c0.1,1.7-0.2,3.4-0.1,5c0.1,2.1,0.8,3,1.4,4c-1.5-0.3-3-2.1-2.5-3.5l-1,0.9c-0.7-1.4,0.5-2.8,0.8-4.4c-0.9,0.7-1.1,1.5-2.4,0.7
		c0.1-0.1,3.8-3.8,1.8-7.7c-0.1,1.4-0.1,2.6-1.1,4.1c-2.5,4.3-8.1,3.7-9.6-0.2c-1.1-3,0.3-6.3,2.9-6.7c2.2-0.4,3.4,0.9,3.5,2.2
		c0.1,1.5-1.1,2.9-2.5,1.9c-0.9-0.7-0.8-1.3,0-2.3c-3.2,0.4-2.7,6.1,1.8,5.6c0.7-0.1,1.4-0.5,1.9-1c3.8-3.1,0.1-10.9-6.6-8.8
		c-3.7,1.2-3.7,4.1-3.9,6.8c-1.5-0.3-3.1-2.4-2.8-4.4c0.8-2.1,1.4-2.4,4.2-3.2c-2,0.1-4.6,0.8-6.7-2.5c-0.2-0.4-0.5-1.3-0.6-1.7
		C10.9,65.2,13.1,62.5,14.2,61.6L14.2,61.6z M25.7,68.3C24,68,19.6,68.6,16.7,68c-1.4-0.3-2.3-2.1-2.2-3.7c0-1.1,0.7-1.9,1.5-2.4
		c1.3-0.9,3.3-0.4,4.1,0.8c-1.1-0.5-2.5,0.3-2.7,1.7c-0.5,2.3,1.2,3.6,3.4,3.3c1.2-0.2,2.1-0.7,2.6-1.5
		C23.6,67.1,24.4,67.9,25.7,68.3L25.7,68.3z M13.6,73.6c-0.6-0.6-2-3-2.2-4.1c0,0,2.3,2.2,3.4,2.3C14.3,72.6,13.8,73.4,13.6,73.6
		L13.6,73.6z M8.6,61.7c-0.1-0.1-0.1-0.8-0.1-1.6c-0.5-0.1-0.3-0.2-0.5-0.5c-0.3-0.8-0.4-2.1-0.1-3c0.6-1.5,2.2-2.7,3.6-2.9
		c1.9-0.3,2.9,0.6,3.2,1.6c0.3,1.3-0.5,2.9-2.1,2.5c-1-0.2-1.2-0.6-1-2.2c-2.1-0.2-4.6,3-1.7,5.3C9.5,61.1,9,61.2,8.6,61.7L8.6,61.7
		z M8.3,54.7c-1.9,2.4-1.2,4.5-0.7,5c0.1,0.1,0.1,0.3,0.1,0.4c-1.4-0.2-2.4-1.4-2.4-2.8c0-2.1,0.9-2.7,2-4.1
		c-1.4,0.4-2.8,2.1-4.8,1.1c1.1-2.2,5.3-3.3,7.4-3.5c3.4-0.2,6.2-0.1,7.4,3c0.7,4.1-1.2,5.1-3.1,6.9c-0.8,0.7-2,1.8-2.6,2.5
		c-1.1,1.3-1.1,2.1-1,3.9c-1.8,0.3-3-2-2.2-3.8c1.2-2.5,3.2-1.9,3.8-2.8c-0.3-0.2-1.1,0.1-1.7-0.2c-1.2-0.7-1.2-2.6,0.4-3.7
		c0.1,1.3,0.3,1.9,2,2c2.1,0.1,3.1-1.6,3-3.2c-0.1-1.1-0.7-2.1-2.1-2.4C11.4,52.5,9.4,53.5,8.3,54.7L8.3,54.7z M23.7,44
		c0.1-0.9,0.4-1.9,0.6-2.5c-0.3,0.5-0.7,0.8-0.9,1C23.2,42.9,23.5,43.7,23.7,44L23.7,44z M44.5,18.4c2.6-1.5,1.1-6.7-3.2-6.7
		c-6.1,0-5,9.6-7.9,14.9c-1.5,2.7-3.9,4.4-6.9,5.6c1.4-0.1,1.7,0,2,0.1c0.1,0.1-2.5,3.1-2.2,4.3c3.3-6.2,9.1-10.1,11-11.2
		c0.7-0.4,3.3-1.7,4.6-2.1c-6.3-0.2-5,2.1-7,2.7c-0.1-1.6-0.1-3.1,0.5-4.3c0.7-1.4,1.3-1.5,3.3-1.4c-0.1-0.8-1.7-4.1,1.7-6
		c1.2-0.6,2.5-0.4,3.4,0.2C44.8,15.3,44.9,16.5,44.5,18.4L44.5,18.4z M32.2,9.7c-0.7,0.2-4.6,2.7-5.3,3.1c-0.8,0.5-1.3,0.9-2.1,1.4
		c-1,0.8-1.5,1.2-2.6,2.1c3.5-1.3,6.5,0.1,8,2.8c-0.5-1.5-2-2.9-2.3-3.3c0.7-0.8,1.2-0.8,2-0.9c-0.1-1-0.5-1.9-0.1-2.8
		c0.3-0.9,0.8-0.5,1.1-0.2C31.3,10.9,31.6,10.4,32.2,9.7L32.2,9.7z M25.5,28c2-0.9,3.5-3.6,2.5-6.2c-1.1-2.6-5.6-2.9-5.3,0.9
		c0.8-1.1,1.6-1.8,2.9-1.3c0.6,0.3,1.3,1.1,1.5,2c0.8,3.6-4.9,5.7-7.3,1.9c-1.3-2.1-1-4.2-0.1-6.3c-2.5,1.6-2.2,6.2-0.7,7.8
		C20.5,28.3,23.1,29.1,25.5,28L25.5,28z M14.2,39c2.1,1.8,3.3,2.4,3.7,4.5c0.2,0.8,0.3,2-0.1,3.6c0.5-0.5,1-0.7,1.5-0.8
		c-0.2-1.9-0.5-4.2,2.4-5.7c0.2-0.1,1.5-0.7,1.6-0.7c-0.3,0.8-0.1,0.9-0.1,1.8c0.6-1,1.1-1.7,1.5-2.7c0.3-0.8,0.4-1.3,0.7-2.2
		c0.4-2.5,1.1-2.8,2-4c-3.4-0.1-3.9,2-4,5c-0.4-1-0.2-2.2-1-3c-0.7-0.7-1.9-1.1-3-0.8c-1.2,0.3-1.8,1.4-1.6,2.3c0.3,1.3,2,2.2,3,0
		c0.6,1.5-0.6,3.3-2.5,3.7c-3,0.6-4.8-1.8-4.5-4.3c0.1-1.3,0.6-2.7,2.3-3.6c3.1-1.6,8.5,1.5,13.7-2.6c2.4-1.7,3.8-4.2,4.2-6.7
		c1-4,1.1-11.4,7-11.8c3.1-0.2,6,2.2,5.7,5.3c-0.3,3.8-5.5,4.9-5.6,2.2c0.6,0.2,1.2,0.8,2.1,0.3c0.5-0.4,0.8-1.1,0.7-1.9
		c-0.6-3.4-6.7-1-4.4,3.1c1,1.7,2.7,1.4,3.7,1.9c-1.5,1-3.7-0.6-5.5-0.6c-1.3,0-2.3,1-2.2,3.4c0.8-0.5,1.4-1.5,2.7-1.7
		c1.3-0.2,2.6,0,3.8-0.1c8-0.6,8.9-9.9,3.6-13c-6.5-3.7-12.5,0.7-12.3,7.8c0.3,2.2-0.6,8.7-3.3,10.6c1-2.6,2.3-3,2.6-9.4
		c0.1-1.7-0.2-3.4-0.1-5c0.1-2.1,0.8-3,1.4-4c-1.5,0.3-3,2.1-2.5,3.5l-1-0.9c-0.7,1.4,0.5,2.8,0.8,4.4c-0.9-0.7-1.1-1.5-2.4-0.7
		c0.1,0.1,3.8,3.8,1.8,7.7c-0.1-1.4-0.1-2.6-1.1-4.1c-2.5-4.3-8.1-3.7-9.6,0.2c-1.1,3,0.3,6.3,2.9,6.7c2.2,0.4,3.4-0.9,3.5-2.2
		c0.1-1.5-1.1-2.9-2.5-1.9c-0.9,0.7-0.8,1.3,0,2.3c-3.2-0.4-2.7-6.1,1.8-5.6c0.7,0.1,1.4,0.5,1.9,1c3.8,3.1,0.1,10.9-6.6,8.8
		c-3.7-1.2-3.7-4.1-3.9-6.8c-1.5,0.3-3.1,2.4-2.8,4.4c0.8,2.1,1.4,2.4,4.2,3.2c-2-0.1-4.6-0.8-6.7,2.5c-0.2,0.4-0.5,1.3-0.6,1.7
		C10.9,35.3,13.1,38,14.2,39L14.2,39z M25.7,32.2c-1.7,0.4-6.1-0.3-9.1,0.4c-1.4,0.3-2.3,2.1-2.2,3.7c0,1.1,0.7,1.9,1.5,2.4
		c1.3,0.9,3.3,0.4,4.1-0.8c-1.1,0.5-2.5-0.3-2.7-1.7c-0.5-2.3,1.2-3.6,3.4-3.3c1.2,0.2,2.1,0.7,2.6,1.5
		C23.6,33.5,24.4,32.7,25.7,32.2L25.7,32.2z M13.6,27c-0.6,0.6-2,3-2.2,4.1c0,0,2.3-2.2,3.4-2.3C14.3,28,13.8,27.2,13.6,27L13.6,27z
		 M8.6,38.9c-0.1,0.1-0.1,0.8-0.1,1.6c-0.5,0.1-0.3,0.2-0.5,0.5c-0.3,0.8-0.4,2.1-0.1,3c0.6,1.5,2.2,2.7,3.6,2.9
		c1.9,0.3,2.9-0.6,3.2-1.6c0.3-1.3-0.5-2.9-2.1-2.5c-1,0.2-1.2,0.6-1,2.2c-2.1,0.2-4.6-3-1.7-5.3C9.5,39.5,9,39.3,8.6,38.9L8.6,38.9
		z M8.3,45.8c-1.9-2.4-1.2-4.5-0.7-5c0.1-0.1,0.1-0.3,0.1-0.4c-1.4,0.2-2.4,1.4-2.4,2.8c0,2.1,0.9,2.7,2,4.1
		c-1.4-0.4-2.8-2.1-4.8-1.1c1.1,2.2,5.3,3.3,7.4,3.5c3.4,0.2,6.2,0.1,7.4-3c0.7-4.1-1.2-5.1-3.1-6.9c-0.8-0.7-2-1.8-2.6-2.5
		c-1.1-1.3-1.1-2.1-1-3.9c-1.8-0.3-3,2-2.2,3.8c1.2,2.5,3.2,1.9,3.8,2.8c-0.3,0.2-1.1-0.1-1.7,0.2c-1.2,0.7-1.2,2.6,0.4,3.7
		c0.1-1.3,0.3-1.9,2-2c2.1-0.1,3.1,1.6,3,3.2c-0.1,1.1-0.7,2.1-2.1,2.4C11.4,48.1,9.4,47,8.3,45.8L8.3,45.8z M92.7,50.3
		c0-0.1,0-0.2,0-0.3c-0.3,0.1-0.8,0.2-1.1,0.3c0.3,0.1,0.8,0.2,1.1,0.3C92.7,50.5,92.7,50.4,92.7,50.3L92.7,50.3z M86.1,50.3
		c-0.4-0.1-1.5-0.5-1.8-0.7c0.1,0.2,0.2,0.4,0.2,0.7c0,0.3-0.1,0.5-0.2,0.7C84.6,50.7,85.7,50.4,86.1,50.3L86.1,50.3L86.1,50.3z
		 M80.5,47.4c-1.3-0.3-2.8,1.3-5.3,0.9c1.3-1.2,3.9-0.8,4.7-2.5c0.6-2.3-1-4-2.3-4.7c-0.1,2.3-0.3,3.4-2.1,4.9
		c-1.4,1-3.1,1.5-3.2,3.9c0,0.3,0,0.5,0,0.8c0.1,2.4,1.8,3,3.2,3.9c1.9,1.5,2,2.5,2.1,4.9c1.4-0.7,2.9-2.4,2.3-4.7
		c-0.8-1.7-3.4-1.3-4.7-2.5c2.5-0.4,4,1.2,5.3,0.9c0.9-0.2,3.5-1.9,3.5-2.9C84,49.4,81.3,47.6,80.5,47.4L80.5,47.4z M76.3,56.6
		c-0.1,0.9-0.4,1.9-0.6,2.5c0.3-0.5,0.7-0.8,0.9-1C76.8,57.7,76.5,56.9,76.3,56.6L76.3,56.6z M55.5,82.2c-2.6,1.5-1.1,6.7,3.2,6.7
		c6.1,0,5-9.6,7.9-14.9c1.5-2.7,3.9-4.4,6.9-5.6c-1.4,0.1-1.7,0-2-0.1c-0.1-0.1,2.5-3.1,2.2-4.3c-3.3,6.2-9.1,10.1-11,11.2
		c-0.7,0.4-3.3,1.7-4.6,2.1c6.3,0.2,5-2.1,7-2.7c0.1,1.6,0.1,3.1-0.5,4.3c-0.7,1.4-1.3,1.5-3.3,1.4c0.1,0.8,1.7,4.1-1.7,6
		c-1.2,0.6-2.5,0.4-3.4-0.2C55.2,85.2,55.1,84.1,55.5,82.2L55.5,82.2z M67.8,90.8c0.7-0.2,4.6-2.7,5.3-3.1c0.8-0.5,1.3-0.9,2.1-1.4
		c1-0.8,1.5-1.2,2.6-2.1c-3.5,1.3-6.5-0.1-8-2.8c0.5,1.5,2,2.9,2.3,3.3c-0.7,0.8-1.2,0.8-2,0.9c0.1,1,0.5,1.9,0.1,2.8
		c-0.3,0.9-0.8,0.5-1.1,0.2C68.7,89.7,68.4,90.1,67.8,90.8L67.8,90.8z M74.5,72.6c-2,0.9-3.5,3.6-2.5,6.2c1.1,2.6,5.6,2.9,5.3-0.9
		c-0.8,1.1-1.6,1.8-2.9,1.3c-0.6-0.3-1.3-1.1-1.5-2c-0.8-3.6,4.9-5.7,7.3-1.9c1.3,2.1,1,4.2,0.1,6.3c2.5-1.6,2.2-6.2,0.7-7.8
		C79.5,72.3,76.9,71.4,74.5,72.6L74.5,72.6z M85.8,61.6c-2.1-1.8-3.3-2.4-3.7-4.5c-0.2-0.8-0.3-2,0.1-3.6c-0.5,0.5-1,0.7-1.5,0.8
		c0.2,1.9,0.5,4.2-2.4,5.7c-0.2,0.1-1.5,0.7-1.6,0.7c0.3-0.8,0.1-0.9,0.1-1.8c-0.6,1-1.1,1.7-1.5,2.7c-0.3,0.8-0.4,1.3-0.7,2.2
		c-0.4,2.5-1.1,2.8-2,4c3.4,0.1,3.9-2,4-5c0.4,1,0.2,2.2,1,3c0.7,0.7,1.9,1.1,3,0.8c1.2-0.3,1.8-1.4,1.6-2.3c-0.3-1.3-2-2.2-3,0
		c-0.6-1.5,0.6-3.3,2.5-3.7c3-0.6,4.8,1.8,4.5,4.3c-0.1,1.3-0.6,2.7-2.3,3.6c-3.1,1.6-8.5-1.5-13.7,2.6c-2.4,1.7-3.8,4.2-4.2,6.7
		c-1,4-1.1,11.4-7,11.8c-3.1,0.2-6-2.2-5.7-5.3c0.3-3.8,5.5-4.9,5.6-2.2c-0.6-0.2-1.2-0.8-2.1-0.3c-0.5,0.4-0.8,1.1-0.7,1.9
		c0.6,3.4,6.7,1,4.4-3.1c-1-1.7-2.7-1.4-3.7-1.9c1.5-1,3.7,0.6,5.5,0.6c1.3,0,2.3-1,2.2-3.4c-0.8,0.5-1.4,1.5-2.7,1.7
		c-1.3,0.2-2.6,0-3.8,0.1c-8,0.6-8.9,9.9-3.6,13c6.5,3.7,12.5-0.7,12.3-7.8c-0.3-2.2,0.6-8.7,3.3-10.6c-1,2.6-2.3,3-2.6,9.4
		c-0.1,1.7,0.2,3.4,0.1,5c-0.1,2.1-0.8,3-1.4,4c1.5-0.3,3-2.1,2.5-3.5l1,0.9c0.7-1.4-0.5-2.8-0.8-4.4c0.9,0.7,1.1,1.5,2.4,0.7
		c-0.1-0.1-3.8-3.8-1.8-7.7c0.1,1.4,0.1,2.6,1.1,4.1c2.5,4.3,8.1,3.7,9.6-0.2c1.1-3-0.3-6.3-2.9-6.7c-2.2-0.4-3.4,0.9-3.5,2.2
		c-0.1,1.5,1.1,2.9,2.5,1.9c0.9-0.7,0.8-1.3,0-2.3c3.2,0.4,2.7,6.1-1.8,5.6c-0.7-0.1-1.4-0.5-1.9-1c-3.8-3.1-0.1-10.9,6.6-8.8
		c3.7,1.2,3.7,4.1,3.9,6.8c1.5-0.3,3.1-2.4,2.8-4.4c-0.8-2.1-1.4-2.4-4.2-3.2c2,0.1,4.6,0.8,6.7-2.5c0.2-0.4,0.5-1.3,0.6-1.7
		C89.1,65.2,86.9,62.5,85.8,61.6L85.8,61.6z M74.3,68.3c1.7-0.4,6.1,0.3,9.1-0.4c1.4-0.3,2.3-2.1,2.2-3.7c0-1.1-0.7-1.9-1.5-2.4
		c-1.3-0.9-3.3-0.4-4.1,0.8c1.1-0.5,2.5,0.3,2.7,1.7c0.5,2.3-1.2,3.6-3.4,3.3c-1.2-0.2-2.1-0.7-2.6-1.5
		C76.4,67.1,75.6,67.9,74.3,68.3L74.3,68.3z M86.4,73.6c0.6-0.6,2-3,2.2-4.1c0,0-2.3,2.2-3.4,2.3C85.7,72.6,86.2,73.4,86.4,73.6
		L86.4,73.6z M91.4,61.7c0.1-0.1,0.1-0.8,0.1-1.6c0.5-0.1,0.3-0.2,0.5-0.5c0.3-0.8,0.4-2.1,0.1-3c-0.6-1.5-2.2-2.7-3.6-2.9
		c-1.9-0.3-2.9,0.6-3.2,1.6c-0.3,1.3,0.5,2.9,2.1,2.5c1-0.2,1.2-0.6,1-2.2c2.1-0.2,4.6,3,1.7,5.3C90.5,61.1,91,61.2,91.4,61.7
		L91.4,61.7z M91.7,54.7c1.9,2.4,1.2,4.5,0.7,5c-0.1,0.1-0.1,0.3-0.1,0.4c1.4-0.2,2.4-1.4,2.4-2.8c0-2.1-0.9-2.7-2-4.1
		c1.4,0.4,2.8,2.1,4.8,1.1c-1.1-2.2-5.3-3.3-7.4-3.5c-3.4-0.2-6.2-0.1-7.4,3c-0.7,4.1,1.2,5.1,3.1,6.9c0.8,0.7,2,1.8,2.6,2.5
		c1.1,1.3,1.1,2.1,1,3.9c1.8,0.3,3-2,2.2-3.8c-1.2-2.5-3.2-1.9-3.8-2.8c0.3-0.2,1.1,0.1,1.7-0.2c1.2-0.7,1.2-2.6-0.4-3.7
		c-0.1,1.3-0.3,1.9-2,2c-2.1,0.1-3.1-1.6-3-3.2c0.1-1.1,0.7-2.1,2.1-2.4C88.6,52.5,90.6,53.5,91.7,54.7L91.7,54.7z M76.3,44
		c-0.1-0.9-0.4-1.9-0.6-2.5c0.3,0.5,0.7,0.8,0.9,1C76.8,42.9,76.5,43.7,76.3,44L76.3,44z M55.5,18.4c-2.6-1.5-1.1-6.7,3.2-6.7
		c6.1,0,5,9.6,7.9,14.9c1.5,2.7,3.9,4.4,6.9,5.6c-1.4-0.1-1.7,0-2,0.1c-0.1,0.1,2.5,3.1,2.2,4.3c-3.3-6.2-9.1-10.1-11-11.2
		c-0.7-0.4-3.3-1.7-4.6-2.1c6.3-0.2,5,2.1,7,2.7c0.1-1.6,0.1-3.1-0.5-4.3c-0.7-1.4-1.3-1.5-3.3-1.4c0.1-0.8,1.7-4.1-1.7-6
		c-1.2-0.6-2.5-0.4-3.4,0.2C55.2,15.3,55.1,16.5,55.5,18.4L55.5,18.4z M67.8,9.7c0.7,0.2,4.6,2.7,5.3,3.1c0.8,0.5,1.3,0.9,2.1,1.4
		c1,0.8,1.5,1.2,2.6,2.1c-3.5-1.3-6.5,0.1-8,2.8c0.5-1.5,2-2.9,2.3-3.3c-0.7-0.8-1.2-0.8-2-0.9c0.1-1,0.5-1.9,0.1-2.8
		c-0.3-0.9-0.8-0.5-1.1-0.2C68.7,10.9,68.4,10.4,67.8,9.7L67.8,9.7z M74.5,28c-2-0.9-3.5-3.6-2.5-6.2c1.1-2.6,5.6-2.9,5.3,0.9
		c-0.8-1.1-1.6-1.8-2.9-1.3c-0.6,0.3-1.3,1.1-1.5,2c-0.8,3.6,4.9,5.7,7.3,1.9c1.3-2.1,1-4.2,0.1-6.3c2.5,1.6,2.2,6.2,0.7,7.8
		C79.5,28.3,76.9,29.1,74.5,28L74.5,28z M85.8,39c-2.1,1.8-3.3,2.4-3.7,4.5c-0.2,0.8-0.3,2,0.1,3.6c-0.5-0.5-1-0.7-1.5-0.8
		c0.2-1.9,0.5-4.2-2.4-5.7c-0.2-0.1-1.5-0.7-1.6-0.7c0.3,0.8,0.1,0.9,0.1,1.8c-0.6-1-1.1-1.7-1.5-2.7c-0.3-0.8-0.4-1.3-0.7-2.2
		c-0.4-2.5-1.1-2.8-2-4c3.4-0.1,3.9,2,4,5c0.4-1,0.2-2.2,1-3c0.7-0.7,1.9-1.1,3-0.8c1.2,0.3,1.8,1.4,1.6,2.3c-0.3,1.3-2,2.2-3,0
		c-0.6,1.5,0.6,3.3,2.5,3.7c3,0.6,4.8-1.8,4.5-4.3c-0.1-1.3-0.6-2.7-2.3-3.6c-3.1-1.6-8.5,1.5-13.7-2.6c-2.4-1.7-3.8-4.2-4.2-6.7
		c-1-4-1.1-11.4-7-11.8c-3.1-0.2-6,2.2-5.7,5.3c0.3,3.8,5.5,4.9,5.6,2.2c-0.6,0.2-1.2,0.8-2.1,0.3c-0.5-0.4-0.8-1.1-0.7-1.9
		c0.6-3.4,6.7-1,4.4,3.1c-1,1.7-2.7,1.4-3.7,1.9c1.5,1,3.7-0.6,5.5-0.6c1.3,0,2.3,1,2.2,3.4c-0.8-0.5-1.4-1.5-2.7-1.7
		c-1.3-0.2-2.6,0-3.8-0.1c-8-0.6-8.9-9.9-3.6-13c6.5-3.7,12.5,0.7,12.3,7.8c-0.3,2.2,0.6,8.7,3.3,10.6c-1-2.6-2.3-3-2.6-9.4
		c-0.1-1.7,0.2-3.4,0.1-5c-0.1-2.1-0.8-3-1.4-4c1.5,0.3,3,2.1,2.5,3.5l1-0.9c0.7,1.4-0.5,2.8-0.8,4.4c0.9-0.7,1.1-1.5,2.4-0.7
		c-0.1,0.1-3.8,3.8-1.8,7.7c0.1-1.4,0.1-2.6,1.1-4.1c2.5-4.3,8.1-3.7,9.6,0.2c1.1,3-0.3,6.3-2.9,6.7c-2.2,0.4-3.4-0.9-3.5-2.2
		c-0.1-1.5,1.1-2.9,2.5-1.9c0.9,0.7,0.8,1.3,0,2.3c3.2-0.4,2.7-6.1-1.8-5.6c-0.7,0.1-1.4,0.5-1.9,1c-3.8,3.1-0.1,10.9,6.6,8.8
		c3.7-1.2,3.7-4.1,3.9-6.8c1.5,0.3,3.1,2.4,2.8,4.4c-0.8,2.1-1.4,2.4-4.2,3.2c2-0.1,4.6-0.8,6.7,2.5c0.2,0.4,0.5,1.3,0.6,1.7
		C89.1,35.3,86.9,38,85.8,39L85.8,39z M74.3,32.2c1.7,0.4,6.1-0.3,9.1,0.4c1.4,0.3,2.3,2.1,2.2,3.7c0,1.1-0.7,1.9-1.5,2.4
		c-1.3,0.9-3.3,0.4-4.1-0.8c1.1,0.5,2.5-0.3,2.7-1.7c0.5-2.3-1.2-3.6-3.4-3.3c-1.2,0.2-2.1,0.7-2.6,1.5
		C76.4,33.5,75.6,32.7,74.3,32.2L74.3,32.2z M86.4,27c0.6,0.6,2,3,2.2,4.1c0,0-2.3-2.2-3.4-2.3C85.7,28,86.2,27.2,86.4,27L86.4,27z
		 M91.4,38.9c0.1,0.1,0.1,0.8,0.1,1.6c0.5,0.1,0.3,0.2,0.5,0.5c0.3,0.8,0.4,2.1,0.1,3c-0.6,1.5-2.2,2.7-3.6,2.9
		c-1.9,0.3-2.9-0.6-3.2-1.6c-0.3-1.3,0.5-2.9,2.1-2.5c1,0.2,1.2,0.6,1,2.2c2.1,0.2,4.6-3,1.7-5.3C90.5,39.5,91,39.3,91.4,38.9
		L91.4,38.9z M91.7,45.8c1.9-2.4,1.2-4.5,0.7-5c-0.1-0.1-0.1-0.3-0.1-0.4c1.4,0.2,2.4,1.4,2.4,2.8c0,2.1-0.9,2.7-2,4.1
		c1.4-0.4,2.8-2.1,4.8-1.1c-1.1,2.2-5.3,3.3-7.4,3.5c-3.4,0.2-6.2,0.1-7.4-3c-0.7-4.1,1.2-5.1,3.1-6.9c0.8-0.7,2-1.8,2.6-2.5
		c1.1-1.3,1.1-2.1,1-3.9c1.8-0.3,3,2,2.2,3.8c-1.2,2.5-3.2,1.9-3.8,2.8c0.3,0.2,1.1-0.1,1.7,0.2c1.2,0.7,1.2,2.6-0.4,3.7
		c-0.1-1.3-0.3-1.9-2-2c-2.1-0.1-3.1,1.6-3,3.2c0.1,1.1,0.7,2.1,2.1,2.4C88.6,48.1,90.6,47,91.7,45.8L91.7,45.8z"/>
	<path class="st1" d="M34.1,37.2c0.5,0.1,1,0.1,1.5,0.1c0.5,0,1,0,1.5,0c0.5,0,1.1,0,1.7,0c0.6,0,1.1-0.1,1.7-0.1
		c0.5,1.4,1.1,2.7,1.7,4c0.6,1.3,1.2,2.6,1.9,3.9l6,12.5L56,45.2c0.6-1.2,1.2-2.5,1.9-3.9c0.7-1.4,1.2-2.8,1.6-4.1
		c0.5,0.1,1.1,0.1,1.6,0.1c0.5,0,1.1,0,1.6,0c0.5,0,1,0,1.5,0c0.5,0,1-0.1,1.5-0.1v1.3h-0.8c-1,0.1-1.7,0.2-2.2,0.5
		c-0.4,0.3-0.6,1-0.6,2V42l0.4,13.9l0.1,2.3c0,0.7,0,1.3,0.1,1.8c0,0.5,0.2,0.8,0.4,1.1c0.2,0.3,0.5,0.5,0.9,0.6
		c0.4,0.1,1,0.2,1.8,0.2v1.4c-1.6-0.2-3.1-0.2-4.8-0.2c-1.6,0-3.2,0.1-4.8,0.2v-1.4c1.3-0.1,2.2-0.3,2.6-0.7
		c0.4-0.4,0.6-1.2,0.6-2.4v-1.4l-0.2-15.1l-7.6,16.1c-0.4,0.8-0.7,1.5-1.1,2.3c-0.4,0.8-0.7,1.5-0.9,2.4h-0.6l-9.8-20.5l-0.2,12.7
		v2.6c0,0.6,0,1.1,0.1,1.6c0,0.5,0.1,0.9,0.3,1.3c0.2,0.4,0.5,0.7,0.9,0.9c0.4,0.2,0.9,0.3,1.6,0.3h0.3v1.4
		c-0.7-0.1-1.4-0.1-2.1-0.2c-0.7-0.1-1.4-0.1-2.2-0.1c-1.3,0-2.6,0.1-3.8,0.2v-1.4c0.4-0.1,0.8-0.1,1.3-0.1c0.5,0,0.8-0.2,1.1-0.6
		c0.2-0.2,0.3-0.5,0.4-0.9c0.1-0.4,0.1-0.7,0.2-1.1c0-0.4,0-0.8,0.1-1.2c0-0.4,0-0.7,0.1-1v-1.3l0.4-11.9c0.1-0.4,0.1-0.8,0.1-1.3
		c0-0.4,0-0.9,0-1.4c0-1-0.2-1.7-0.6-2.1c-0.4-0.4-1.1-0.6-2.1-0.6h-0.9V37.2L34.1,37.2z"/>
</g>
</svg>
